<?xml version="1.0" encoding="UTF-8" standalone="no"?>
<!DOCTYPE svg PUBLIC "-//W3C//DTD SVG 1.1//EN"
 "http://www.w3.org/Graphics/SVG/1.1/DTD/svg11.dtd">
<!-- Generated by graphviz version 2.38.0 (20140413.2041)
 -->
<!-- Title: controllers_diagram Pages: 1 -->
<svg width="1223pt" height="1051pt"
 viewBox="0.00 0.00 1222.86 1050.91" xmlns="http://www.w3.org/2000/svg" xmlns:xlink="http://www.w3.org/1999/xlink">
<g id="graph0" class="graph" transform="scale(1 1) rotate(0) translate(465.863 507.911)">
<title>controllers_diagram</title>
<polygon fill="none" stroke="none" points="-465.863,543 -465.863,-507.911 757,-507.911 757,543 -465.863,543"/>
<!-- _diagram_info -->
<g id="node1" class="node"><title>_diagram_info</title>
<text text-anchor="start" x="547" y="475.4" font-family="Times,serif" font-size="13.00">Controllers diagram</text>
<text text-anchor="start" x="547" y="489.4" font-family="Times,serif" font-size="13.00">Date: Dec 10 2017 &#45; 17:18</text>
<text text-anchor="start" x="547" y="503.4" font-family="Times,serif" font-size="13.00">Migration version: 20171210140953</text>
<text text-anchor="start" x="547" y="517.4" font-family="Times,serif" font-size="13.00">Generated by RailRoady 1.5.3</text>
<text text-anchor="start" x="547" y="531.4" font-family="Times,serif" font-size="13.00">http://railroady.prestonlee.com</text>
</g>
<!-- AlbumsController -->
<g id="node2" class="node"><title>AlbumsController</title>
<path fill="none" stroke="black" d="M-356.164,49.0473C-356.164,49.0473 -264.164,49.0473 -264.164,49.0473 -258.164,49.0473 -252.164,43.0473 -252.164,37.0473 -252.164,37.0473 -252.164,-226.953 -252.164,-226.953 -252.164,-232.953 -258.164,-238.953 -264.164,-238.953 -264.164,-238.953 -356.164,-238.953 -356.164,-238.953 -362.164,-238.953 -368.164,-232.953 -368.164,-226.953 -368.164,-226.953 -368.164,37.0473 -368.164,37.0473 -368.164,43.0473 -362.164,49.0473 -356.164,49.0473"/>
<text text-anchor="middle" x="-310.164" y="-223.753" font-family="Times,serif" font-size="14.00">AlbumsController</text>
<polyline fill="none" stroke="black" points="-368.164,-215.953 -252.164,-215.953 "/>
<text text-anchor="start" x="-360.164" y="-200.753" font-family="Times,serif" font-size="14.00">addbooks</text>
<text text-anchor="start" x="-360.164" y="-185.753" font-family="Times,serif" font-size="14.00">addbooktoalbum</text>
<text text-anchor="start" x="-360.164" y="-170.753" font-family="Times,serif" font-size="14.00">booksrelated</text>
<text text-anchor="start" x="-360.164" y="-155.753" font-family="Times,serif" font-size="14.00">create</text>
<text text-anchor="start" x="-360.164" y="-140.753" font-family="Times,serif" font-size="14.00">deletebook</text>
<text text-anchor="start" x="-360.164" y="-125.753" font-family="Times,serif" font-size="14.00">destroy</text>
<text text-anchor="start" x="-360.164" y="-110.753" font-family="Times,serif" font-size="14.00">edit</text>
<text text-anchor="start" x="-360.164" y="-95.7527" font-family="Times,serif" font-size="14.00">index</text>
<text text-anchor="start" x="-360.164" y="-80.7527" font-family="Times,serif" font-size="14.00">myalbums</text>
<text text-anchor="start" x="-360.164" y="-65.7527" font-family="Times,serif" font-size="14.00">new</text>
<text text-anchor="start" x="-360.164" y="-50.7527" font-family="Times,serif" font-size="14.00">show</text>
<text text-anchor="start" x="-360.164" y="-35.7527" font-family="Times,serif" font-size="14.00">update</text>
<polyline fill="none" stroke="black" points="-368.164,-27.9527 -252.164,-27.9527 "/>
<polyline fill="none" stroke="black" points="-368.164,-3.95274 -252.164,-3.95274 "/>
<text text-anchor="start" x="-360.164" y="11.2473" font-family="Times,serif" font-size="14.00">_layout</text>
<text text-anchor="start" x="-360.164" y="26.2473" font-family="Times,serif" font-size="14.00">album_params</text>
<text text-anchor="start" x="-360.164" y="41.2473" font-family="Times,serif" font-size="14.00">set_album</text>
</g>
<!-- BooksController -->
<g id="node3" class="node"><title>BooksController</title>
<path fill="none" stroke="black" d="M293.887,-215.411C293.887,-215.411 377.887,-215.411 377.887,-215.411 383.887,-215.411 389.887,-221.411 389.887,-227.411 389.887,-227.411 389.887,-491.411 389.887,-491.411 389.887,-497.411 383.887,-503.411 377.887,-503.411 377.887,-503.411 293.887,-503.411 293.887,-503.411 287.887,-503.411 281.887,-497.411 281.887,-491.411 281.887,-491.411 281.887,-227.411 281.887,-227.411 281.887,-221.411 287.887,-215.411 293.887,-215.411"/>
<text text-anchor="middle" x="335.887" y="-488.211" font-family="Times,serif" font-size="14.00">BooksController</text>
<polyline fill="none" stroke="black" points="281.887,-480.411 389.887,-480.411 "/>
<text text-anchor="start" x="289.887" y="-465.211" font-family="Times,serif" font-size="14.00">addalbums</text>
<text text-anchor="start" x="289.887" y="-450.211" font-family="Times,serif" font-size="14.00">addalbumtobook</text>
<text text-anchor="start" x="289.887" y="-435.211" font-family="Times,serif" font-size="14.00">albumsrelated</text>
<text text-anchor="start" x="289.887" y="-420.211" font-family="Times,serif" font-size="14.00">create</text>
<text text-anchor="start" x="289.887" y="-405.211" font-family="Times,serif" font-size="14.00">deletealbum</text>
<text text-anchor="start" x="289.887" y="-390.211" font-family="Times,serif" font-size="14.00">destroy</text>
<text text-anchor="start" x="289.887" y="-375.211" font-family="Times,serif" font-size="14.00">edit</text>
<text text-anchor="start" x="289.887" y="-360.211" font-family="Times,serif" font-size="14.00">index</text>
<text text-anchor="start" x="289.887" y="-345.211" font-family="Times,serif" font-size="14.00">mybooks</text>
<text text-anchor="start" x="289.887" y="-330.211" font-family="Times,serif" font-size="14.00">new</text>
<text text-anchor="start" x="289.887" y="-315.211" font-family="Times,serif" font-size="14.00">show</text>
<text text-anchor="start" x="289.887" y="-300.211" font-family="Times,serif" font-size="14.00">update</text>
<polyline fill="none" stroke="black" points="281.887,-292.411 389.887,-292.411 "/>
<polyline fill="none" stroke="black" points="281.887,-268.411 389.887,-268.411 "/>
<text text-anchor="start" x="289.887" y="-253.211" font-family="Times,serif" font-size="14.00">_layout</text>
<text text-anchor="start" x="289.887" y="-238.211" font-family="Times,serif" font-size="14.00">book_params</text>
<text text-anchor="start" x="289.887" y="-223.211" font-family="Times,serif" font-size="14.00">set_book</text>
</g>
<!-- RegistrationsController -->
<g id="node4" class="node"><title>RegistrationsController</title>
<path fill="none" stroke="black" d="M258.298,531.894C258.298,531.894 382.298,531.894 382.298,531.894 388.298,531.894 394.298,525.894 394.298,519.894 394.298,519.894 394.298,419.894 394.298,419.894 394.298,413.894 388.298,407.894 382.298,407.894 382.298,407.894 258.298,407.894 258.298,407.894 252.298,407.894 246.298,413.894 246.298,419.894 246.298,419.894 246.298,519.894 246.298,519.894 246.298,525.894 252.298,531.894 258.298,531.894"/>
<text text-anchor="middle" x="320.298" y="423.094" font-family="Times,serif" font-size="14.00">RegistrationsController</text>
<polyline fill="none" stroke="black" points="246.298,430.894 394.298,430.894 "/>
<polyline fill="none" stroke="black" points="246.298,454.894 394.298,454.894 "/>
<polyline fill="none" stroke="black" points="246.298,478.894 394.298,478.894 "/>
<text text-anchor="start" x="254.298" y="494.094" font-family="Times,serif" font-size="14.00">_layout</text>
<text text-anchor="start" x="254.298" y="509.094" font-family="Times,serif" font-size="14.00">account_update_params</text>
<text text-anchor="start" x="254.298" y="524.094" font-family="Times,serif" font-size="14.00">sign_up_params</text>
</g>
<!-- WelcomeController -->
<g id="node5" class="node"><title>WelcomeController</title>
<path fill="none" stroke="black" d="M-23.9445,-330.55C-23.9445,-330.55 77.0555,-330.55 77.0555,-330.55 83.0555,-330.55 89.0555,-336.55 89.0555,-342.55 89.0555,-342.55 89.0555,-411.55 89.0555,-411.55 89.0555,-417.55 83.0555,-423.55 77.0555,-423.55 77.0555,-423.55 -23.9445,-423.55 -23.9445,-423.55 -29.9445,-423.55 -35.9445,-417.55 -35.9445,-411.55 -35.9445,-411.55 -35.9445,-342.55 -35.9445,-342.55 -35.9445,-336.55 -29.9445,-330.55 -23.9445,-330.55"/>
<text text-anchor="middle" x="26.5555" y="-408.35" font-family="Times,serif" font-size="14.00">WelcomeController</text>
<polyline fill="none" stroke="black" points="-35.9445,-400.55 89.0555,-400.55 "/>
<text text-anchor="start" x="-27.9445" y="-385.35" font-family="Times,serif" font-size="14.00">index</text>
<polyline fill="none" stroke="black" points="-35.9445,-377.55 89.0555,-377.55 "/>
<polyline fill="none" stroke="black" points="-35.9445,-353.55 89.0555,-353.55 "/>
<text text-anchor="start" x="-27.9445" y="-338.35" font-family="Times,serif" font-size="14.00">_layout</text>
</g>
<!-- ApplicationController -->
<g id="node6" class="node"><title>ApplicationController</title>
<path fill="none" stroke="black" d="M-44.7565,-69.4026C-44.7565,-69.4026 67.2435,-69.4026 67.2435,-69.4026 73.2435,-69.4026 79.2435,-75.4026 79.2435,-81.4026 79.2435,-81.4026 79.2435,-151.403 79.2435,-151.403 79.2435,-157.403 73.2435,-163.403 67.2435,-163.403 67.2435,-163.403 -44.7565,-163.403 -44.7565,-163.403 -50.7565,-163.403 -56.7565,-157.403 -56.7565,-151.403 -56.7565,-151.403 -56.7565,-81.4026 -56.7565,-81.4026 -56.7565,-75.4026 -50.7565,-69.4026 -44.7565,-69.4026"/>
<text text-anchor="middle" x="11.2435" y="-148.203" font-family="Times,serif" font-size="14.00">ApplicationController</text>
<polyline fill="none" stroke="black" points="-56.7565,-140.403 79.2435,-140.403 "/>
<polyline fill="none" stroke="black" points="-56.7565,-116.403 79.2435,-116.403 "/>
<polyline fill="none" stroke="black" points="-56.7565,-92.4026 79.2435,-92.4026 "/>
<text text-anchor="start" x="-48.7565" y="-77.2026" font-family="Times,serif" font-size="14.00">_layout</text>
</g>
<!-- ApplicationController&#45;&gt;AlbumsController -->
<g id="edge1" class="edge"><title>ApplicationController&#45;&gt;AlbumsController</title>
<path fill="none" stroke="black" d="M-56.9188,-111.854C-114.872,-107.986 -197.181,-102.493 -252.059,-98.8305"/>
</g>
<!-- ApplicationController&#45;&gt;BooksController -->
<g id="edge2" class="edge"><title>ApplicationController&#45;&gt;BooksController</title>
<path fill="none" stroke="black" d="M74.223,-163.545C134.519,-208.679 224.529,-276.056 281.704,-318.853"/>
</g>
<!-- ApplicationController&#45;&gt;WelcomeController -->
<g id="edge4" class="edge"><title>ApplicationController&#45;&gt;WelcomeController</title>
<path fill="none" stroke="black" d="M14.0164,-163.604C16.7914,-210.842 21.0355,-283.086 23.8033,-330.2"/>
</g>
<!-- ShowUserController -->
<g id="node7" class="node"><title>ShowUserController</title>
<path fill="none" stroke="black" d="M-347.267,-313.231C-347.267,-313.231 -243.267,-313.231 -243.267,-313.231 -237.267,-313.231 -231.267,-319.231 -231.267,-325.231 -231.267,-325.231 -231.267,-409.231 -231.267,-409.231 -231.267,-415.231 -237.267,-421.231 -243.267,-421.231 -243.267,-421.231 -347.267,-421.231 -347.267,-421.231 -353.267,-421.231 -359.267,-415.231 -359.267,-409.231 -359.267,-409.231 -359.267,-325.231 -359.267,-325.231 -359.267,-319.231 -353.267,-313.231 -347.267,-313.231"/>
<text text-anchor="middle" x="-295.267" y="-406.031" font-family="Times,serif" font-size="14.00">ShowUserController</text>
<polyline fill="none" stroke="black" points="-359.267,-398.231 -231.267,-398.231 "/>
<text text-anchor="start" x="-351.267" y="-383.031" font-family="Times,serif" font-size="14.00">index</text>
<text text-anchor="start" x="-351.267" y="-368.031" font-family="Times,serif" font-size="14.00">turnintoadmin</text>
<polyline fill="none" stroke="black" points="-359.267,-360.231 -231.267,-360.231 "/>
<polyline fill="none" stroke="black" points="-359.267,-336.231 -231.267,-336.231 "/>
<text text-anchor="start" x="-351.267" y="-321.031" font-family="Times,serif" font-size="14.00">_layout</text>
</g>
<!-- ApplicationController&#45;&gt;ShowUserController -->
<g id="edge5" class="edge"><title>ApplicationController&#45;&gt;ShowUserController</title>
<path fill="none" stroke="black" d="M-46.4088,-163.581C-99.0402,-206.652 -176.718,-270.219 -231.256,-314.848"/>
</g>
<!-- DeviseController -->
<g id="node8" class="node"><title>DeviseController</title>
<path fill="none" stroke="black" d="M-178.738,336.894C-178.738,336.894 -11.7382,336.894 -11.7382,336.894 -5.73821,336.894 0.261794,330.894 0.261794,324.894 0.261794,324.894 0.261794,-43.1063 0.261794,-43.1063 0.261794,-49.1063 -5.73821,-55.1063 -11.7382,-55.1063 -11.7382,-55.1063 -178.738,-55.1063 -178.738,-55.1063 -184.738,-55.1063 -190.738,-49.1063 -190.738,-43.1063 -190.738,-43.1063 -190.738,324.894 -190.738,324.894 -190.738,330.894 -184.738,336.894 -178.738,336.894"/>
<text text-anchor="middle" x="-95.2382" y="-39.9063" font-family="Times,serif" font-size="14.00">DeviseController</text>
<polyline fill="none" stroke="black" points="-190.738,-32.1063 0.261794,-32.1063 "/>
<text text-anchor="start" x="-182.738" y="-16.9063" font-family="Times,serif" font-size="14.00">_prefixes</text>
<polyline fill="none" stroke="black" points="-190.738,-9.10634 0.261794,-9.10634 "/>
<text text-anchor="start" x="-182.738" y="6.09366" font-family="Times,serif" font-size="14.00">assert_is_devise_resource!</text>
<text text-anchor="start" x="-182.738" y="21.0937" font-family="Times,serif" font-size="14.00">clean_up_passwords</text>
<text text-anchor="start" x="-182.738" y="36.0937" font-family="Times,serif" font-size="14.00">devise_i18n_options</text>
<text text-anchor="start" x="-182.738" y="51.0937" font-family="Times,serif" font-size="14.00">devise_mapping</text>
<text text-anchor="start" x="-182.738" y="66.0937" font-family="Times,serif" font-size="14.00">find_message</text>
<text text-anchor="start" x="-182.738" y="81.0937" font-family="Times,serif" font-size="14.00">navigational_formats</text>
<text text-anchor="start" x="-182.738" y="96.0937" font-family="Times,serif" font-size="14.00">require_no_authentication</text>
<text text-anchor="start" x="-182.738" y="111.094" font-family="Times,serif" font-size="14.00">resource</text>
<text text-anchor="start" x="-182.738" y="126.094" font-family="Times,serif" font-size="14.00">resource=</text>
<text text-anchor="start" x="-182.738" y="141.094" font-family="Times,serif" font-size="14.00">resource_class</text>
<text text-anchor="start" x="-182.738" y="156.094" font-family="Times,serif" font-size="14.00">resource_name</text>
<text text-anchor="start" x="-182.738" y="171.094" font-family="Times,serif" font-size="14.00">resource_params</text>
<text text-anchor="start" x="-182.738" y="186.094" font-family="Times,serif" font-size="14.00">respond_with_navigational</text>
<text text-anchor="start" x="-182.738" y="201.094" font-family="Times,serif" font-size="14.00">scope_name</text>
<text text-anchor="start" x="-182.738" y="216.094" font-family="Times,serif" font-size="14.00">set_flash_message</text>
<text text-anchor="start" x="-182.738" y="231.094" font-family="Times,serif" font-size="14.00">set_flash_message!</text>
<text text-anchor="start" x="-182.738" y="246.094" font-family="Times,serif" font-size="14.00">set_minimum_password_length</text>
<text text-anchor="start" x="-182.738" y="261.094" font-family="Times,serif" font-size="14.00">signed_in_resource</text>
<text text-anchor="start" x="-182.738" y="276.094" font-family="Times,serif" font-size="14.00">successfully_sent?</text>
<text text-anchor="start" x="-182.738" y="291.094" font-family="Times,serif" font-size="14.00">translation_scope</text>
<text text-anchor="start" x="-182.738" y="306.094" font-family="Times,serif" font-size="14.00">unknown_action!</text>
<polyline fill="none" stroke="black" points="-190.738,313.894 0.261794,313.894 "/>
<text text-anchor="start" x="-182.738" y="329.094" font-family="Times,serif" font-size="14.00">_layout</text>
</g>
<!-- ApplicationController&#45;&gt;DeviseController -->
<g id="edge6" class="edge"><title>ApplicationController&#45;&gt;DeviseController</title>
<path fill="none" stroke="black" d="M-8.2869,-69.2105C-10.0881,-64.8582 -11.9767,-60.2946 -13.9364,-55.5594"/>
</g>
<!-- Devise::RegistrationsController -->
<g id="node9" class="node"><title>Devise::RegistrationsController</title>
<path fill="none" stroke="black" d="M51.3777,357.313C51.3777,357.313 220.378,357.313 220.378,357.313 226.378,357.313 232.378,351.313 232.378,345.313 232.378,345.313 232.378,52.3126 232.378,52.3126 232.378,46.3126 226.378,40.3126 220.378,40.3126 220.378,40.3126 51.3777,40.3126 51.3777,40.3126 45.3777,40.3126 39.3777,46.3126 39.3777,52.3126 39.3777,52.3126 39.3777,345.313 39.3777,345.313 39.3777,351.313 45.3777,357.313 51.3777,357.313"/>
<text text-anchor="middle" x="135.878" y="55.5126" font-family="Times,serif" font-size="14.00">Devise::RegistrationsController</text>
<polyline fill="none" stroke="black" points="39.3777,63.3126 232.378,63.3126 "/>
<text text-anchor="start" x="47.3777" y="78.5126" font-family="Times,serif" font-size="14.00">cancel</text>
<text text-anchor="start" x="47.3777" y="93.5126" font-family="Times,serif" font-size="14.00">create</text>
<text text-anchor="start" x="47.3777" y="108.513" font-family="Times,serif" font-size="14.00">destroy</text>
<text text-anchor="start" x="47.3777" y="123.513" font-family="Times,serif" font-size="14.00">edit</text>
<text text-anchor="start" x="47.3777" y="138.513" font-family="Times,serif" font-size="14.00">new</text>
<text text-anchor="start" x="47.3777" y="153.513" font-family="Times,serif" font-size="14.00">update</text>
<polyline fill="none" stroke="black" points="39.3777,161.313 232.378,161.313 "/>
<text text-anchor="start" x="47.3777" y="176.513" font-family="Times,serif" font-size="14.00">account_update_params</text>
<text text-anchor="start" x="47.3777" y="191.513" font-family="Times,serif" font-size="14.00">after_inactive_sign_up_path_for</text>
<text text-anchor="start" x="47.3777" y="206.513" font-family="Times,serif" font-size="14.00">after_sign_up_path_for</text>
<text text-anchor="start" x="47.3777" y="221.513" font-family="Times,serif" font-size="14.00">after_update_path_for</text>
<text text-anchor="start" x="47.3777" y="236.513" font-family="Times,serif" font-size="14.00">authenticate_scope!</text>
<text text-anchor="start" x="47.3777" y="251.513" font-family="Times,serif" font-size="14.00">build_resource</text>
<text text-anchor="start" x="47.3777" y="266.513" font-family="Times,serif" font-size="14.00">sign_up</text>
<text text-anchor="start" x="47.3777" y="281.513" font-family="Times,serif" font-size="14.00">sign_up_params</text>
<text text-anchor="start" x="47.3777" y="296.513" font-family="Times,serif" font-size="14.00">translation_scope</text>
<text text-anchor="start" x="47.3777" y="311.513" font-family="Times,serif" font-size="14.00">update_needs_confirmation?</text>
<text text-anchor="start" x="47.3777" y="326.513" font-family="Times,serif" font-size="14.00">update_resource</text>
<polyline fill="none" stroke="black" points="39.3777,334.313 232.378,334.313 "/>
<text text-anchor="start" x="47.3777" y="349.513" font-family="Times,serif" font-size="14.00">_layout</text>
</g>
<!-- DeviseController&#45;&gt;Devise::RegistrationsController -->
<g id="edge7" class="edge"><title>DeviseController&#45;&gt;Devise::RegistrationsController</title>
<path fill="none" stroke="black" d="M0.433801,164.87C13.2246,168.075 26.3505,171.364 39.1591,174.574"/>
</g>
<!-- Devise::UnlocksController -->
<g id="node10" class="node"><title>Devise::UnlocksController</title>
<path fill="none" stroke="black" d="M-449.863,262.796C-449.863,262.796 -217.863,262.796 -217.863,262.796 -211.863,262.796 -205.863,256.796 -205.863,250.796 -205.863,250.796 -205.863,122.796 -205.863,122.796 -205.863,116.796 -211.863,110.796 -217.863,110.796 -217.863,110.796 -449.863,110.796 -449.863,110.796 -455.863,110.796 -461.863,116.796 -461.863,122.796 -461.863,122.796 -461.863,250.796 -461.863,250.796 -461.863,256.796 -455.863,262.796 -449.863,262.796"/>
<text text-anchor="middle" x="-333.863" y="125.996" font-family="Times,serif" font-size="14.00">Devise::UnlocksController</text>
<polyline fill="none" stroke="black" points="-461.863,133.796 -205.863,133.796 "/>
<text text-anchor="start" x="-453.863" y="148.996" font-family="Times,serif" font-size="14.00">create</text>
<text text-anchor="start" x="-453.863" y="163.996" font-family="Times,serif" font-size="14.00">new</text>
<text text-anchor="start" x="-453.863" y="178.996" font-family="Times,serif" font-size="14.00">show</text>
<polyline fill="none" stroke="black" points="-461.863,186.796 -205.863,186.796 "/>
<text text-anchor="start" x="-453.863" y="201.996" font-family="Times,serif" font-size="14.00">after_sending_unlock_instructions_path_for</text>
<text text-anchor="start" x="-453.863" y="216.996" font-family="Times,serif" font-size="14.00">after_unlock_path_for</text>
<text text-anchor="start" x="-453.863" y="231.996" font-family="Times,serif" font-size="14.00">translation_scope</text>
<polyline fill="none" stroke="black" points="-461.863,239.796 -205.863,239.796 "/>
<text text-anchor="start" x="-453.863" y="254.996" font-family="Times,serif" font-size="14.00">_layout</text>
</g>
<!-- DeviseController&#45;&gt;Devise::UnlocksController -->
<g id="edge8" class="edge"><title>DeviseController&#45;&gt;Devise::UnlocksController</title>
<path fill="none" stroke="black" d="M-190.921,159.299C-195.848,160.247 -200.832,161.206 -205.835,162.168"/>
</g>
<!-- Devise::ConfirmationsController -->
<g id="node11" class="node"><title>Devise::ConfirmationsController</title>
<path fill="none" stroke="black" d="M-146.236,536.767C-146.236,536.767 129.764,536.767 129.764,536.767 135.764,536.767 141.764,530.767 141.764,524.767 141.764,524.767 141.764,396.767 141.764,396.767 141.764,390.767 135.764,384.767 129.764,384.767 129.764,384.767 -146.236,384.767 -146.236,384.767 -152.236,384.767 -158.236,390.767 -158.236,396.767 -158.236,396.767 -158.236,524.767 -158.236,524.767 -158.236,530.767 -152.236,536.767 -146.236,536.767"/>
<text text-anchor="middle" x="-8.23559" y="399.967" font-family="Times,serif" font-size="14.00">Devise::ConfirmationsController</text>
<polyline fill="none" stroke="black" points="-158.236,407.767 141.764,407.767 "/>
<text text-anchor="start" x="-150.236" y="422.967" font-family="Times,serif" font-size="14.00">create</text>
<text text-anchor="start" x="-150.236" y="437.967" font-family="Times,serif" font-size="14.00">new</text>
<text text-anchor="start" x="-150.236" y="452.967" font-family="Times,serif" font-size="14.00">show</text>
<polyline fill="none" stroke="black" points="-158.236,460.767 141.764,460.767 "/>
<text text-anchor="start" x="-150.236" y="475.967" font-family="Times,serif" font-size="14.00">after_confirmation_path_for</text>
<text text-anchor="start" x="-150.236" y="490.967" font-family="Times,serif" font-size="14.00">after_resending_confirmation_instructions_path_for</text>
<text text-anchor="start" x="-150.236" y="505.967" font-family="Times,serif" font-size="14.00">translation_scope</text>
<polyline fill="none" stroke="black" points="-158.236,513.767 141.764,513.767 "/>
<text text-anchor="start" x="-150.236" y="528.967" font-family="Times,serif" font-size="14.00">_layout</text>
</g>
<!-- DeviseController&#45;&gt;Devise::ConfirmationsController -->
<g id="edge9" class="edge"><title>DeviseController&#45;&gt;Devise::ConfirmationsController</title>
<path fill="none" stroke="black" d="M-41.8731,337.095C-37.3356,353.778 -32.9493,369.905 -28.926,384.697"/>
</g>
<!-- Devise::SessionsController -->
<g id="node12" class="node"><title>Devise::SessionsController</title>
<path fill="none" stroke="black" d="M306.246,293.903C306.246,293.903 446.246,293.903 446.246,293.903 452.246,293.903 458.246,287.903 458.246,281.903 458.246,281.903 458.246,93.9033 458.246,93.9033 458.246,87.9033 452.246,81.9033 446.246,81.9033 446.246,81.9033 306.246,81.9033 306.246,81.9033 300.246,81.9033 294.246,87.9033 294.246,93.9033 294.246,93.9033 294.246,281.903 294.246,281.903 294.246,287.903 300.246,293.903 306.246,293.903"/>
<text text-anchor="middle" x="376.246" y="97.1033" font-family="Times,serif" font-size="14.00">Devise::SessionsController</text>
<polyline fill="none" stroke="black" points="294.246,104.903 458.246,104.903 "/>
<text text-anchor="start" x="302.246" y="120.103" font-family="Times,serif" font-size="14.00">create</text>
<text text-anchor="start" x="302.246" y="135.103" font-family="Times,serif" font-size="14.00">destroy</text>
<text text-anchor="start" x="302.246" y="150.103" font-family="Times,serif" font-size="14.00">new</text>
<polyline fill="none" stroke="black" points="294.246,157.903 458.246,157.903 "/>
<text text-anchor="start" x="302.246" y="173.103" font-family="Times,serif" font-size="14.00">auth_options</text>
<text text-anchor="start" x="302.246" y="188.103" font-family="Times,serif" font-size="14.00">serialize_options</text>
<text text-anchor="start" x="302.246" y="203.103" font-family="Times,serif" font-size="14.00">sign_in_params</text>
<text text-anchor="start" x="302.246" y="218.103" font-family="Times,serif" font-size="14.00">translation_scope</text>
<polyline fill="none" stroke="black" points="294.246,225.903 458.246,225.903 "/>
<text text-anchor="start" x="302.246" y="241.103" font-family="Times,serif" font-size="14.00">_layout</text>
<text text-anchor="start" x="302.246" y="256.103" font-family="Times,serif" font-size="14.00">all_signed_out?</text>
<text text-anchor="start" x="302.246" y="271.103" font-family="Times,serif" font-size="14.00">respond_to_on_destroy</text>
<text text-anchor="start" x="302.246" y="286.103" font-family="Times,serif" font-size="14.00">verify_signed_out_user</text>
</g>
<!-- DeviseController&#45;&gt;Devise::SessionsController -->
<g id="edge10" class="edge"><title>DeviseController&#45;&gt;Devise::SessionsController</title>
<path fill="none" stroke="black" d="M0.620662,54.1198C12.0134,47.2606 23.9566,41.3563 36.1777,37.1126 78.037,22.5772 194.94,19.4475 235.578,37.1126 259.054,47.3176 280.389,63.5848 298.949,81.7319"/>
</g>
<!-- Devise::OmniauthCallbacksController -->
<g id="node13" class="node"><title>Devise::OmniauthCallbacksController</title>
<path fill="none" stroke="black" d="M-407.767,538.437C-407.767,538.437 -206.767,538.437 -206.767,538.437 -200.767,538.437 -194.767,532.437 -194.767,526.437 -194.767,526.437 -194.767,398.437 -194.767,398.437 -194.767,392.437 -200.767,386.437 -206.767,386.437 -206.767,386.437 -407.767,386.437 -407.767,386.437 -413.767,386.437 -419.767,392.437 -419.767,398.437 -419.767,398.437 -419.767,526.437 -419.767,526.437 -419.767,532.437 -413.767,538.437 -407.767,538.437"/>
<text text-anchor="middle" x="-307.267" y="401.637" font-family="Times,serif" font-size="14.00">Devise::OmniauthCallbacksController</text>
<polyline fill="none" stroke="black" points="-419.767,409.437 -194.767,409.437 "/>
<text text-anchor="start" x="-411.767" y="424.637" font-family="Times,serif" font-size="14.00">failure</text>
<text text-anchor="start" x="-411.767" y="439.637" font-family="Times,serif" font-size="14.00">passthru</text>
<polyline fill="none" stroke="black" points="-419.767,447.437 -194.767,447.437 "/>
<text text-anchor="start" x="-411.767" y="462.637" font-family="Times,serif" font-size="14.00">after_omniauth_failure_path_for</text>
<text text-anchor="start" x="-411.767" y="477.637" font-family="Times,serif" font-size="14.00">failed_strategy</text>
<text text-anchor="start" x="-411.767" y="492.637" font-family="Times,serif" font-size="14.00">failure_message</text>
<text text-anchor="start" x="-411.767" y="507.637" font-family="Times,serif" font-size="14.00">translation_scope</text>
<polyline fill="none" stroke="black" points="-419.767,515.437 -194.767,515.437 "/>
<text text-anchor="start" x="-411.767" y="530.637" font-family="Times,serif" font-size="14.00">_layout</text>
</g>
<!-- DeviseController&#45;&gt;Devise::OmniauthCallbacksController -->
<g id="edge11" class="edge"><title>DeviseController&#45;&gt;Devise::OmniauthCallbacksController</title>
<path fill="none" stroke="black" d="M-191.017,286.143C-213.844,320.76 -237.31,356.346 -257.128,386.401"/>
</g>
<!-- Devise::PasswordsController -->
<g id="node14" class="node"><title>Devise::PasswordsController</title>
<path fill="none" stroke="black" d="M180.903,17.6475C180.903,17.6475 458.903,17.6475 458.903,17.6475 464.903,17.6475 470.903,11.6475 470.903,5.64752 470.903,5.64752 470.903,-167.352 470.903,-167.352 470.903,-173.352 464.903,-179.352 458.903,-179.352 458.903,-179.352 180.903,-179.352 180.903,-179.352 174.903,-179.352 168.903,-173.352 168.903,-167.352 168.903,-167.352 168.903,5.64752 168.903,5.64752 168.903,11.6475 174.903,17.6475 180.903,17.6475"/>
<text text-anchor="middle" x="319.903" y="-164.152" font-family="Times,serif" font-size="14.00">Devise::PasswordsController</text>
<polyline fill="none" stroke="black" points="168.903,-156.352 470.903,-156.352 "/>
<text text-anchor="start" x="176.903" y="-141.152" font-family="Times,serif" font-size="14.00">create</text>
<text text-anchor="start" x="176.903" y="-126.152" font-family="Times,serif" font-size="14.00">edit</text>
<text text-anchor="start" x="176.903" y="-111.152" font-family="Times,serif" font-size="14.00">new</text>
<text text-anchor="start" x="176.903" y="-96.1525" font-family="Times,serif" font-size="14.00">update</text>
<polyline fill="none" stroke="black" points="168.903,-88.3525 470.903,-88.3525 "/>
<text text-anchor="start" x="176.903" y="-73.1525" font-family="Times,serif" font-size="14.00">after_resetting_password_path_for</text>
<text text-anchor="start" x="176.903" y="-58.1525" font-family="Times,serif" font-size="14.00">after_sending_reset_password_instructions_path_for</text>
<text text-anchor="start" x="176.903" y="-43.1525" font-family="Times,serif" font-size="14.00">assert_reset_token_passed</text>
<text text-anchor="start" x="176.903" y="-28.1525" font-family="Times,serif" font-size="14.00">translation_scope</text>
<text text-anchor="start" x="176.903" y="-13.1525" font-family="Times,serif" font-size="14.00">unlockable?</text>
<polyline fill="none" stroke="black" points="168.903,-5.35248 470.903,-5.35248 "/>
<text text-anchor="start" x="176.903" y="9.84752" font-family="Times,serif" font-size="14.00">_layout</text>
</g>
<!-- DeviseController&#45;&gt;Devise::PasswordsController -->
<g id="edge12" class="edge"><title>DeviseController&#45;&gt;Devise::PasswordsController</title>
<path fill="none" stroke="black" d="M0.59077,60.4269C12.2597,52.0808 24.2718,44.1083 36.1777,37.1126 77.4572,12.8579 124.666,-8.8893 168.572,-26.9059"/>
</g>
<!-- Devise::RegistrationsController&#45;&gt;RegistrationsController -->
<g id="edge3" class="edge"><title>Devise::RegistrationsController&#45;&gt;RegistrationsController</title>
<path fill="none" stroke="black" d="M232.409,340.705C248.444,364.276 264.305,387.59 278.046,407.788"/>
</g>
</g>
</svg>
