<?xml version="1.0" encoding="UTF-8" standalone="no"?>
<!DOCTYPE svg PUBLIC "-//W3C//DTD SVG 1.1//EN"
 "http://www.w3.org/Graphics/SVG/1.1/DTD/svg11.dtd">
<!-- Generated by graphviz version 2.38.0 (20140413.2041)
 -->
<!-- Title: models_diagram Pages: 1 -->
<svg width="545pt" height="965pt"
 viewBox="0.00 0.00 545.00 965.00" xmlns="http://www.w3.org/2000/svg" xmlns:xlink="http://www.w3.org/1999/xlink">
<g id="graph0" class="graph" transform="scale(1 1) rotate(0) translate(4 961)">
<title>models_diagram</title>
<polygon fill="none" stroke="none" points="-4,4 -4,-961 541,-961 541,4 -4,4"/>
<!-- _diagram_info -->
<g id="node1" class="node"><title>_diagram_info</title>
<text text-anchor="start" x="8" y="-942.6" font-family="Times,serif" font-size="13.00">Models diagram</text>
<text text-anchor="start" x="8" y="-928.6" font-family="Times,serif" font-size="13.00">Date: Dec 10 2017 &#45; 17:18</text>
<text text-anchor="start" x="8" y="-914.6" font-family="Times,serif" font-size="13.00">Migration version: 20171210140953</text>
<text text-anchor="start" x="8" y="-900.6" font-family="Times,serif" font-size="13.00">Generated by RailRoady 1.5.3</text>
<text text-anchor="start" x="8" y="-886.6" font-family="Times,serif" font-size="13.00">http://railroady.prestonlee.com</text>
</g>
<!-- Album -->
<g id="node2" class="node"><title>Album</title>
<path fill="none" stroke="black" d="M280.5,-248.5C280.5,-248.5 427.5,-248.5 427.5,-248.5 433.5,-248.5 439.5,-254.5 439.5,-260.5 439.5,-260.5 439.5,-447.5 439.5,-447.5 439.5,-453.5 433.5,-459.5 427.5,-459.5 427.5,-459.5 280.5,-459.5 280.5,-459.5 274.5,-459.5 268.5,-453.5 268.5,-447.5 268.5,-447.5 268.5,-260.5 268.5,-260.5 268.5,-254.5 274.5,-248.5 280.5,-248.5"/>
<text text-anchor="middle" x="354" y="-444.3" font-family="Times,serif" font-size="14.00">Album</text>
<polyline fill="none" stroke="black" points="268.5,-436.5 439.5,-436.5 "/>
<text text-anchor="start" x="276.5" y="-421.3" font-family="Times,serif" font-size="14.00">id :INTEGER</text>
<text text-anchor="start" x="276.5" y="-406.3" font-family="Times,serif" font-size="14.00">title :varchar</text>
<text text-anchor="start" x="276.5" y="-391.3" font-family="Times,serif" font-size="14.00">artist :varchar</text>
<text text-anchor="start" x="276.5" y="-376.3" font-family="Times,serif" font-size="14.00">genre :varchar</text>
<text text-anchor="start" x="276.5" y="-361.3" font-family="Times,serif" font-size="14.00">year :integer</text>
<text text-anchor="start" x="276.5" y="-346.3" font-family="Times,serif" font-size="14.00">created_at :datetime</text>
<text text-anchor="start" x="276.5" y="-331.3" font-family="Times,serif" font-size="14.00">updated_at :datetime</text>
<text text-anchor="start" x="276.5" y="-316.3" font-family="Times,serif" font-size="14.00">cover_file_name :varchar</text>
<text text-anchor="start" x="276.5" y="-301.3" font-family="Times,serif" font-size="14.00">cover_content_type :varchar</text>
<text text-anchor="start" x="276.5" y="-286.3" font-family="Times,serif" font-size="14.00">cover_file_size :integer</text>
<text text-anchor="start" x="276.5" y="-271.3" font-family="Times,serif" font-size="14.00">cover_updated_at :datetime</text>
<text text-anchor="start" x="276.5" y="-256.3" font-family="Times,serif" font-size="14.00">user_id :integer</text>
</g>
<!-- Book -->
<g id="node3" class="node"><title>Book</title>
<path fill="none" stroke="black" d="M280.5,-0.5C280.5,-0.5 427.5,-0.5 427.5,-0.5 433.5,-0.5 439.5,-6.5 439.5,-12.5 439.5,-12.5 439.5,-199.5 439.5,-199.5 439.5,-205.5 433.5,-211.5 427.5,-211.5 427.5,-211.5 280.5,-211.5 280.5,-211.5 274.5,-211.5 268.5,-205.5 268.5,-199.5 268.5,-199.5 268.5,-12.5 268.5,-12.5 268.5,-6.5 274.5,-0.5 280.5,-0.5"/>
<text text-anchor="middle" x="354" y="-196.3" font-family="Times,serif" font-size="14.00">Book</text>
<polyline fill="none" stroke="black" points="268.5,-188.5 439.5,-188.5 "/>
<text text-anchor="start" x="276.5" y="-173.3" font-family="Times,serif" font-size="14.00">id :INTEGER</text>
<text text-anchor="start" x="276.5" y="-158.3" font-family="Times,serif" font-size="14.00">title :varchar</text>
<text text-anchor="start" x="276.5" y="-143.3" font-family="Times,serif" font-size="14.00">author :varchar</text>
<text text-anchor="start" x="276.5" y="-128.3" font-family="Times,serif" font-size="14.00">genre :varchar</text>
<text text-anchor="start" x="276.5" y="-113.3" font-family="Times,serif" font-size="14.00">year :integer</text>
<text text-anchor="start" x="276.5" y="-98.3" font-family="Times,serif" font-size="14.00">created_at :datetime</text>
<text text-anchor="start" x="276.5" y="-83.3" font-family="Times,serif" font-size="14.00">updated_at :datetime</text>
<text text-anchor="start" x="276.5" y="-68.3" font-family="Times,serif" font-size="14.00">cover_file_name :varchar</text>
<text text-anchor="start" x="276.5" y="-53.3" font-family="Times,serif" font-size="14.00">cover_content_type :varchar</text>
<text text-anchor="start" x="276.5" y="-38.3" font-family="Times,serif" font-size="14.00">cover_file_size :integer</text>
<text text-anchor="start" x="276.5" y="-23.3" font-family="Times,serif" font-size="14.00">cover_updated_at :datetime</text>
<text text-anchor="start" x="276.5" y="-8.3" font-family="Times,serif" font-size="14.00">user_id :integer</text>
</g>
<!-- Album&#45;&gt;Book -->
<g id="edge1" class="edge"><title>Album&#45;&gt;Book</title>
<path fill="none" stroke="#d54371" d="M354,-238.296C354,-232.868 354,-227.419 354,-221.991"/>
<polygon fill="#d54371" stroke="#d54371" points="354,-238.317 349.5,-248.317 354,-243.317 354,-248.317 354,-248.317 354,-248.317 354,-243.317 358.5,-248.317 354,-238.317 354,-238.317"/>
<polygon fill="#d54371" stroke="#d54371" points="354,-221.589 358.5,-211.589 354,-216.589 354,-211.589 354,-211.589 354,-211.589 354,-216.589 349.5,-211.589 354,-221.589 354,-221.589"/>
</g>
<!-- User -->
<g id="node4" class="node"><title>User</title>
<path fill="none" stroke="black" d="M349,-496.5C349,-496.5 525,-496.5 525,-496.5 531,-496.5 537,-502.5 537,-508.5 537,-508.5 537,-830.5 537,-830.5 537,-836.5 531,-842.5 525,-842.5 525,-842.5 349,-842.5 349,-842.5 343,-842.5 337,-836.5 337,-830.5 337,-830.5 337,-508.5 337,-508.5 337,-502.5 343,-496.5 349,-496.5"/>
<text text-anchor="middle" x="437" y="-827.3" font-family="Times,serif" font-size="14.00">User</text>
<polyline fill="none" stroke="black" points="337,-819.5 537,-819.5 "/>
<text text-anchor="start" x="345" y="-804.3" font-family="Times,serif" font-size="14.00">id :INTEGER</text>
<text text-anchor="start" x="345" y="-789.3" font-family="Times,serif" font-size="14.00">email :varchar</text>
<text text-anchor="start" x="345" y="-774.3" font-family="Times,serif" font-size="14.00">encrypted_password :varchar</text>
<text text-anchor="start" x="345" y="-759.3" font-family="Times,serif" font-size="14.00">reset_password_token :varchar</text>
<text text-anchor="start" x="345" y="-744.3" font-family="Times,serif" font-size="14.00">reset_password_sent_at :datetime</text>
<text text-anchor="start" x="345" y="-729.3" font-family="Times,serif" font-size="14.00">remember_created_at :datetime</text>
<text text-anchor="start" x="345" y="-714.3" font-family="Times,serif" font-size="14.00">sign_in_count :integer</text>
<text text-anchor="start" x="345" y="-699.3" font-family="Times,serif" font-size="14.00">current_sign_in_at :datetime</text>
<text text-anchor="start" x="345" y="-684.3" font-family="Times,serif" font-size="14.00">last_sign_in_at :datetime</text>
<text text-anchor="start" x="345" y="-669.3" font-family="Times,serif" font-size="14.00">current_sign_in_ip :varchar</text>
<text text-anchor="start" x="345" y="-654.3" font-family="Times,serif" font-size="14.00">last_sign_in_ip :varchar</text>
<text text-anchor="start" x="345" y="-639.3" font-family="Times,serif" font-size="14.00">created_at :datetime</text>
<text text-anchor="start" x="345" y="-624.3" font-family="Times,serif" font-size="14.00">updated_at :datetime</text>
<text text-anchor="start" x="345" y="-609.3" font-family="Times,serif" font-size="14.00">first_name :varchar</text>
<text text-anchor="start" x="345" y="-594.3" font-family="Times,serif" font-size="14.00">last_name :varchar</text>
<text text-anchor="start" x="345" y="-579.3" font-family="Times,serif" font-size="14.00">user_name :varchar</text>
<text text-anchor="start" x="345" y="-564.3" font-family="Times,serif" font-size="14.00">avatar_file_name :varchar</text>
<text text-anchor="start" x="345" y="-549.3" font-family="Times,serif" font-size="14.00">avatar_content_type :varchar</text>
<text text-anchor="start" x="345" y="-534.3" font-family="Times,serif" font-size="14.00">avatar_file_size :integer</text>
<text text-anchor="start" x="345" y="-519.3" font-family="Times,serif" font-size="14.00">avatar_updated_at :datetime</text>
<text text-anchor="start" x="345" y="-504.3" font-family="Times,serif" font-size="14.00">admin :boolean</text>
</g>
<!-- User&#45;&gt;Album -->
<g id="edge4" class="edge"><title>User&#45;&gt;Album</title>
<path fill="none" stroke="#0796e7" d="M389.304,-488.346C387.616,-481.972 385.943,-475.651 384.295,-469.426"/>
<ellipse fill="none" stroke="#0796e7" cx="390.349" cy="-492.292" rx="4.00001" ry="4.00001"/>
<polygon fill="#0796e7" stroke="#0796e7" points="384.287,-469.397 386.078,-458.578 383.007,-464.563 381.727,-459.73 381.727,-459.73 381.727,-459.73 383.007,-464.563 377.377,-460.881 384.287,-469.397 384.287,-469.397"/>
</g>
<!-- User&#45;&gt;Book -->
<g id="edge5" class="edge"><title>User&#45;&gt;Book</title>
<path fill="none" stroke="#ae7d1a" d="M467.242,-488.148C473.543,-412.486 472.364,-324.49 449,-248 446.216,-238.886 442.624,-229.828 438.47,-220.958"/>
<ellipse fill="none" stroke="#ae7d1a" cx="466.872" cy="-492.383" rx="4" ry="4"/>
<polygon fill="#ae7d1a" stroke="#ae7d1a" points="438.371,-220.756 437.986,-209.797 436.161,-216.271 433.95,-211.787 433.95,-211.787 433.95,-211.787 436.161,-216.271 429.914,-213.776 438.371,-220.756 438.371,-220.756"/>
</g>
<!-- ApplicationRecord -->
<g id="node5" class="node"><title>ApplicationRecord</title>
<ellipse fill="none" stroke="black" cx="309" cy="-918" rx="77.1866" ry="18"/>
<text text-anchor="middle" x="309" y="-914.3" font-family="Times,serif" font-size="14.00">ApplicationRecord</text>
</g>
<!-- ApplicationRecord&#45;&gt;Album -->
<g id="edge2" class="edge"><title>ApplicationRecord&#45;&gt;Album</title>
<path fill="none" stroke="black" d="M308.932,-899.689C308.887,-842.121 310.191,-651.924 328,-496 329.342,-484.253 331.081,-472.011 333.023,-459.861"/>
</g>
<!-- ApplicationRecord&#45;&gt;Book -->
<g id="edge3" class="edge"><title>ApplicationRecord&#45;&gt;Book</title>
<path fill="none" stroke="black" d="M303.351,-899.957C278.617,-822.621 184.406,-497.67 260,-248 263.709,-235.751 268.871,-223.594 274.886,-211.851"/>
</g>
<!-- ApplicationRecord&#45;&gt;User -->
<g id="edge6" class="edge"><title>ApplicationRecord&#45;&gt;User</title>
<path fill="none" stroke="black" d="M317.798,-900.057C324.83,-886.515 335.49,-865.985 347.599,-842.667"/>
</g>
</g>
</svg>
