<?xml version="1.0" encoding="UTF-8" standalone="no"?>
<!DOCTYPE svg PUBLIC "-//W3C//DTD SVG 1.1//EN"
 "http://www.w3.org/Graphics/SVG/1.1/DTD/svg11.dtd">
<!-- Generated by graphviz version 2.38.0 (20140413.2041)
 -->
<!-- Title: models_diagram Pages: 1 -->
<svg width="399pt" height="302pt"
 viewBox="0.00 0.00 399.30 302.00" xmlns="http://www.w3.org/2000/svg" xmlns:xlink="http://www.w3.org/1999/xlink">
<g id="graph0" class="graph" transform="scale(1 1) rotate(0) translate(4 298)">
<title>models_diagram</title>
<polygon fill="none" stroke="none" points="-4,4 -4,-298 395.298,-298 395.298,4 -4,4"/>
<!-- _diagram_info -->
<g id="node1" class="node"><title>_diagram_info</title>
<text text-anchor="start" x="8" y="-279.6" font-family="Times,serif" font-size="13.00">Models diagram</text>
<text text-anchor="start" x="8" y="-265.6" font-family="Times,serif" font-size="13.00">Date: Dec 10 2017 &#45; 17:18</text>
<text text-anchor="start" x="8" y="-251.6" font-family="Times,serif" font-size="13.00">Migration version: 20171210140953</text>
<text text-anchor="start" x="8" y="-237.6" font-family="Times,serif" font-size="13.00">Generated by RailRoady 1.5.3</text>
<text text-anchor="start" x="8" y="-223.6" font-family="Times,serif" font-size="13.00">http://railroady.prestonlee.com</text>
</g>
<!-- Album -->
<g id="node2" class="node"><title>Album</title>
<ellipse fill="none" stroke="black" cx="322" cy="-90" rx="35.9954" ry="18"/>
<text text-anchor="middle" x="322" y="-86.3" font-family="Times,serif" font-size="14.00">Album</text>
</g>
<!-- Book -->
<g id="node3" class="node"><title>Book</title>
<ellipse fill="none" stroke="black" cx="322" cy="-18" rx="29.795" ry="18"/>
<text text-anchor="middle" x="322" y="-14.3" font-family="Times,serif" font-size="14.00">Book</text>
</g>
<!-- Album&#45;&gt;Book -->
<g id="edge1" class="edge"><title>Album&#45;&gt;Book</title>
<path fill="none" stroke="#a68ffa" d="M322,-61.6651C322,-56.6867 322,-51.4906 322,-46.5072"/>
<polygon fill="#a68ffa" stroke="#a68ffa" points="322,-61.6966 317.5,-71.6966 322,-66.6966 322,-71.6966 322,-71.6966 322,-71.6966 322,-66.6966 326.5,-71.6967 322,-61.6966 322,-61.6966"/>
<polygon fill="#a68ffa" stroke="#a68ffa" points="322,-46.1043 326.5,-36.1043 322,-41.1043 322,-36.1043 322,-36.1043 322,-36.1043 322,-41.1043 317.5,-36.1044 322,-46.1043 322,-46.1043"/>
</g>
<!-- User -->
<g id="node4" class="node"><title>User</title>
<ellipse fill="none" stroke="black" cx="364" cy="-162" rx="27.0966" ry="18"/>
<text text-anchor="middle" x="364" y="-158.3" font-family="Times,serif" font-size="14.00">User</text>
</g>
<!-- User&#45;&gt;Album -->
<g id="edge4" class="edge"><title>User&#45;&gt;Album</title>
<path fill="none" stroke="#62cb1f" d="M350.332,-138.221C346.153,-131.255 341.531,-123.551 337.253,-116.422"/>
<ellipse fill="none" stroke="#62cb1f" cx="352.412" cy="-141.686" rx="4.00002" ry="4.00002"/>
<polygon fill="#62cb1f" stroke="#62cb1f" points="337.223,-116.372 335.937,-105.482 334.651,-112.085 332.078,-107.797 332.078,-107.797 332.078,-107.797 334.651,-112.085 328.22,-110.113 337.223,-116.372 337.223,-116.372"/>
</g>
<!-- User&#45;&gt;Book -->
<g id="edge5" class="edge"><title>User&#45;&gt;Book</title>
<path fill="none" stroke="#f50bb8" d="M369.743,-136.116C372.812,-117.814 374.58,-92.6393 367,-72 362.687,-60.2568 354.491,-49.3353 346.262,-40.4948"/>
<ellipse fill="none" stroke="#f50bb8" cx="369.005" cy="-140.068" rx="4.00001" ry="4.00001"/>
<polygon fill="#f50bb8" stroke="#f50bb8" points="346.162,-40.3934 342.315,-30.1244 342.641,-36.8434 339.12,-33.2933 339.12,-33.2933 339.12,-33.2933 342.641,-36.8434 335.925,-36.4622 346.162,-40.3934 346.162,-40.3934"/>
</g>
<!-- ApplicationRecord -->
<g id="node5" class="node"><title>ApplicationRecord</title>
<ellipse fill="none" stroke="black" cx="309" cy="-255" rx="77.1866" ry="18"/>
<text text-anchor="middle" x="309" y="-251.3" font-family="Times,serif" font-size="14.00">ApplicationRecord</text>
</g>
<!-- ApplicationRecord&#45;&gt;Album -->
<g id="edge2" class="edge"><title>ApplicationRecord&#45;&gt;Album</title>
<path fill="none" stroke="black" d="M310.367,-236.864C312.857,-205.64 318.107,-139.812 320.613,-108.397"/>
</g>
<!-- ApplicationRecord&#45;&gt;Book -->
<g id="edge3" class="edge"><title>ApplicationRecord&#45;&gt;Book</title>
<path fill="none" stroke="black" d="M300.262,-236.918C284.682,-204.051 255.654,-130.122 277,-72 282.576,-56.8169 294.644,-43.0073 304.88,-33.2933"/>
</g>
<!-- ApplicationRecord&#45;&gt;User -->
<g id="edge6" class="edge"><title>ApplicationRecord&#45;&gt;User</title>
<path fill="none" stroke="black" d="M319.345,-236.884C329.365,-220.305 344.444,-195.357 354.255,-179.123"/>
</g>
</g>
</svg>
